<svg width="165" height="59" viewBox="0 0 165 59" fill="none" xmlns="http://www.w3.org/2000/svg">
<g filter="url(#filter0_d_32598_10)">
<rect x="3" y="3" width="158.67" height="52.31" fill="white" fill-opacity="0.01" shape-rendering="crispEdges"/>
</g>
<path fill-rule="evenodd" clip-rule="evenodd" d="M3 29.151V55.302L25.9495 55.3069C38.572 55.3096 74.2097 55.3107 105.145 55.3096L161.391 55.3074L161.529 29.1537L161.667 3H82.3336H3V29.151ZM48.6337 29.4206V53.6844H26.6128H4.59187V29.4206V5.15678H26.6128H48.6337V29.4206ZM13.0574 14.8871C12.0095 15.952 11.9776 16.4896 12.1289 30.5718L12.2859 45.1538L13.5387 46.1842C14.6934 47.1337 15.7801 47.2141 27.4294 47.2141C41.0404 47.2141 41.7462 47.0723 41.7276 44.345C41.7085 41.6361 41.4517 41.5703 29.684 41.2829L18.6534 41.0133L18.5107 28.3735C18.3886 17.5631 18.2422 15.5924 17.4998 14.7588C16.3494 13.4669 14.3999 13.523 13.0574 14.8871ZM65.2915 20.5681C65.4688 21.0372 65.6136 24.4341 65.6136 28.1168V34.8126H71.7322C76.7047 34.8126 77.9092 34.9652 78.1592 35.6284C78.329 36.077 78.1724 36.8049 77.8121 37.246C76.8305 38.4478 63.9225 38.409 62.7329 37.2007C62.0505 36.5067 61.8992 34.9107 61.8992 28.3934C61.8992 24.0157 62.0584 20.2721 62.2532 20.0747C62.9287 19.3883 64.971 19.7199 65.2915 20.5681ZM96.5394 20.4576C103.685 23.5644 103.685 34.1984 96.5394 37.3053C93.8083 38.4926 88.5435 38.2478 86.0585 36.8173C82.9072 35.004 81.5323 32.5932 81.5323 28.8814C81.5323 25.031 82.9661 22.6359 86.292 20.9283C89.0513 19.5118 93.8566 19.2907 96.5394 20.4576ZM121.289 20.6598C123.761 21.9414 124.483 23.2118 123.378 24.3344C122.597 25.1286 122.348 25.107 120.357 24.075C115.185 21.3936 109.125 23.9871 109.125 28.8814C109.125 30.7492 110.629 33.1211 112.404 34.0539C114.829 35.328 119.578 34.8606 120.887 33.2182C122.648 31.0085 122.192 30.5599 118.013 30.3879C114.305 30.2353 114.166 30.1809 114.166 28.8814C114.166 27.5593 114.254 27.5302 118.751 27.3787C124.113 27.1975 125.043 27.7378 125.043 31.0355C125.043 35.114 121.181 38.0477 115.809 38.0477C112.2 38.0477 110.405 37.3775 108.186 35.2029C103.79 30.8937 105.285 22.9848 110.972 20.4667C113.342 19.4169 119.102 19.5247 121.289 20.6598ZM144.698 20.9569C147.406 22.4121 149.452 25.822 149.452 28.8814C149.452 31.9408 147.406 35.3507 144.698 36.806C140.057 39.2998 132.892 37.9696 130.116 34.0992C129.265 32.9135 129.023 31.7591 129.023 28.8814C129.023 26.0037 129.265 24.8493 130.116 23.6636C132.892 19.7933 140.057 18.4631 144.698 20.9569ZM87.5342 24.0028C85.4478 25.2958 84.5643 28.0079 85.322 30.7966C86.7839 36.1767 96.2221 36.187 97.9679 30.8101C98.8296 28.1573 97.8893 25.3632 95.6719 23.9887C93.4788 22.63 89.7395 22.6364 87.5342 24.0028ZM135.125 23.8318C132.989 25.3718 132.507 26.3057 132.489 28.9429C132.475 30.9298 132.756 31.7187 133.882 32.8628C135.599 34.6077 137.095 35.0309 140.26 34.6686C143.778 34.2658 145.473 32.384 145.473 28.8814C145.473 25.0547 143.744 23.3692 139.526 23.084C137.193 22.9265 136.132 23.1066 135.125 23.8318Z" fill="white"/>
<defs>
<filter id="filter0_d_32598_10" x="0" y="0" width="164.67" height="58.31" filterUnits="userSpaceOnUse" color-interpolation-filters="sRGB">
<feFlood flood-opacity="0" result="BackgroundImageFix"/>
<feColorMatrix in="SourceAlpha" type="matrix" values="0 0 0 0 0 0 0 0 0 0 0 0 0 0 0 0 0 0 127 0" result="hardAlpha"/>
<feMorphology radius="3" operator="dilate" in="SourceAlpha" result="effect1_dropShadow_32598_10"/>
<feOffset/>
<feComposite in2="hardAlpha" operator="out"/>
<feColorMatrix type="matrix" values="0 0 0 0 0.137255 0 0 0 0 0.321569 0 0 0 0 0.870588 0 0 0 1 0"/>
<feBlend mode="normal" in2="BackgroundImageFix" result="effect1_dropShadow_32598_10"/>
<feBlend mode="normal" in="SourceGraphic" in2="effect1_dropShadow_32598_10" result="shape"/>
</filter>
</defs>
</svg>
